<svg xmlns="http://www.w3.org/2000/svg" width="32" height="16" viewBox="0 0 32 16">
    <g fill="#D8232A" fill-rule="evenodd">
        <path d="M26.235 0c1.224.106 2.636-.23 3.643.41 1.002.564 1.703 1.616 1.647 2.823l-7.224.019c-.122.047-.197.23-.341.339-1.005 1.223-2.01 2.47-3.05 3.658.128-1.31.184-2.665.365-3.98L15.3 3.253a119.12 119.12 0 0 1-.179 3.466c-.268-1.28-1.327-2.682-2.673-3.059-.626-.193-1.219-.336-1.882-.372l-10.33.033c0 .02-.033.02-.033 0C.184 2.188.74 1.158 1.742.532c.434-.25.9-.476 1.42-.508L26.235 0M31.459 12.353c0 .019-.019.019 0 .035-1.426-1.576-2.71-3.313-3.96-5.012l.016-.07c1.285-1.365 2.483-2.777 3.906-4l.038.023v9.024M9.605 7.513c.019.405-.273.722-.6.976-.836.589-2.064.306-3.146.353l.2-2.287c1.087.076 3.176-.346 3.546.958M24.01 12.313c.117.4.451.306.771.306h6.748c.052 1.266-.72 2.53-1.905 3.035-.448.198-.951.29-1.471.29H16.835l-13.71.035c-1.13-.087-2.26-.955-2.69-2.038A3.632 3.632 0 0 1 .2 12.675l10.118-.054c1.53-.179 2.997-.847 3.896-2.275a9.483 9.483 0 0 0 .79-1.624c-.108 1.3-.164 2.636-.305 3.953 1.92-.016 5.939 0 5.939 0 .037-1.623.127-3.322.235-4.93l3.139 4.573"/>
    </g>
</svg>
