<svg xmlns="http://www.w3.org/2000/svg" width="26" height="16" viewBox="0 0 26 16">
    <g fill="none" fill-rule="evenodd">
        <path fill="#6C6BBD" d="M16.446 14.25H9.451V1.71h6.995z"/>
        <path fill="#EB001B" d="M9.9 7.979a7.954 7.954 0 0 1 3.053-6.27A7.973 7.973 0 0 0 8.013.004C3.596.004.017 3.574.017 7.979c0 4.405 3.58 7.975 7.994 7.975a7.973 7.973 0 0 0 4.94-1.705A7.955 7.955 0 0 1 9.9 7.98"/>
        <path fill="#0099DF" d="M25.88 7.979c0 4.405-3.578 7.975-7.993 7.975a7.975 7.975 0 0 1-4.942-1.705A7.954 7.954 0 0 0 16 7.98a7.953 7.953 0 0 0-3.054-6.27A7.975 7.975 0 0 1 17.886.004c4.416 0 7.995 3.57 7.995 7.975"/>
    </g>
</svg>
