<svg xmlns="http://www.w3.org/2000/svg" width="26" height="16" viewBox="0 0 26 16">
    <g fill="none" fill-rule="evenodd">
        <path fill="#FF5F00" d="M16.438 14.254H9.443V1.814h6.995z"/>
        <path fill="#EB001B" d="M9.892 8.033a7.868 7.868 0 0 1 3.053-6.22A8.014 8.014 0 0 0 8.005.121C3.588.121.01 3.663.01 8.033s3.579 7.911 7.994 7.911a8.014 8.014 0 0 0 4.94-1.691 7.869 7.869 0 0 1-3.052-6.22"/>
        <path fill="#F79E1B" d="M25.873 8.033c0 4.37-3.58 7.912-7.994 7.912a8.016 8.016 0 0 1-4.942-1.692 7.868 7.868 0 0 0 3.054-6.22 7.868 7.868 0 0 0-3.054-6.22A8.016 8.016 0 0 1 17.88.121c4.415 0 7.994 3.542 7.994 7.912"/>
    </g>
</svg>
