<svg xmlns="http://www.w3.org/2000/svg" width="49" height="16" viewBox="0 0 49 16">
    <g fill="none" fill-rule="evenodd">
        <path fill="#00579F" fill-rule="nonzero" d="M21.213 15.753h-3.965L19.728.33h3.965l-2.48 15.424zM35.589.706a9.723 9.723 0 0 0-3.557-.657c-3.916 0-6.674 2.1-6.691 5.103-.032 2.215 1.974 3.446 3.476 4.185 1.534.754 2.055 1.247 2.055 1.92-.015 1.033-1.24 1.51-2.381 1.51-1.583 0-2.432-.246-3.72-.821l-.523-.246-.555 3.462c.93.426 2.644.804 4.423.82 4.16 0 6.87-2.067 6.902-5.267.015-1.755-1.044-3.1-3.33-4.2-1.386-.706-2.235-1.182-2.235-1.904.016-.656.718-1.329 2.284-1.329a6.704 6.704 0 0 1 2.954.59l.358.165.54-3.331zm5.27 9.583c.327-.886 1.583-4.316 1.583-4.316-.016.033.326-.902.522-1.476l.277 1.329s.751 3.692.914 4.463H40.86zm4.895-9.96h-3.067c-.946 0-1.665.279-2.073 1.28l-5.89 14.144h4.16l.833-2.314h5.091c.114.542.474 2.314.474 2.314h3.671L45.754.329zm-31.819 0l-3.883 10.518-.425-2.133c-.718-2.462-2.97-5.136-5.482-6.466l3.557 13.489h4.193L18.13.329h-4.194z"/>
        <path fill="#FAA61A" d="M6.445.329H.065L0 .64c4.977 1.28 8.273 4.366 9.627 8.074L8.24 1.625C8.012.64 7.31.361 6.445.33z"/>
    </g>
</svg>
